<?xml version="1.0" encoding="utf-8"?>
<!-- Generator: Adobe Illustrator 27.5.0, SVG Export Plug-In . SVG Version: 6.00 Build 0)  -->
<svg version="1.1" id="Layer_1" xmlns="http://www.w3.org/2000/svg" xmlns:xlink="http://www.w3.org/1999/xlink" x="0px" y="0px"
	 viewBox="0 0 702 1024" style="enable-background:new 0 0 702 1024;" xml:space="preserve" fill="currentColor" stroke="currentColor">
<path d="M390.42,133.69c-11.53-0.24-23.65,0.53-37.06,2.35c-52.79,7.18-102.64,34.42-140.38,76.68
	c-37.82,42.36-59.49,95.42-61.02,149.42l-0.01,0.47c0,0.58-0.02,1.29-0.03,2.07c-0.06,2.57-0.13,6.08,0.1,9.8
	c1.32,20.79,16.53,35.1,37.13,35.1c0.32,0,0.64,0,0.96-0.01c21.05-0.45,35.32-15.23,36.36-37.66
	c2.71-58.42,26.4-102.54,72.43-134.86c25.4-17.83,55.78-27.32,92.88-28.99c21.92-0.99,36.74-16.92,36.03-38.74
	C427.13,148.46,412.11,134.14,390.42,133.69z"/>
<path d="M646.14,180.76c-31.23-51.61-70.78-92.3-117.56-120.94c-46.54-28.5-100.71-45.38-161.01-50.16
	c-57.25-4.54-114.33,8.97-174.53,41.3C130.77,84.4,80.42,135.65,47.43,199.17c-33.03,63.6-45.65,133.75-36.52,202.88
	c11.99,90.68,52.9,166.86,121.6,226.42c28.69,24.88,44.72,52.21,49,83.56c1.07,7.84,2.31,15.73,3.51,23.35
	c4.1,26.13,7.98,50.81,5.95,75.81c-0.79,9.66-0.56,19.1-0.34,28.24c0.08,3.45,0.16,6.71,0.19,10c0.22,26.57,10.74,48.11,29.61,60.65
	c9,5.98,11.33,11.16,9.97,22.1c-0.33,2.6-0.13,4.71-0.01,5.98l0.03,0.32c2.35,42.78,37.7,76.75,80.52,77.37
	c9.51,0.13,19.11,0.1,28.4,0.06c4.25-0.02,8.5-0.03,12.75-0.03c3.56,0.01,7.12,0.02,10.68,0.03c4.71,0.02,9.49,0.03,14.3,0.03
	c5.02,0,10.08-0.02,15.09-0.08c44.46-0.48,79.59-34.25,81.71-78.55c0.33-6.68,0.4-13.23,0.4-19.41
	c27.17-17.47,40.72-43.6,39.2-75.67c-1.73-36.75,0.75-75.4,7.81-121.62c0.26-1.69,0.44-3.26,0.62-4.78c0.21-1.78,0.4-3.46,0.67-4.8
	c6.54-32.34,23.91-60.52,53.11-86.15C704.04,512.19,733.67,325.4,646.14,180.76z M390.29,955.16c-1.78,0-3.68,0-5.65,0l-8.39,0.02
	c-17.65,0.03-35.85,0.07-53.82-0.02c-2.71,0-5.36,0-7.77,0c-12.89,0-13.57-24.84-13.57-24.84h46.07v0.04l6.03,0.01
	c1.53,0,3.06,0.01,4.59,0.01v-0.05h46.07C403.85,930.32,403.18,955.16,390.29,955.16z M436.62,847.53
	c-0.11,3.72-0.63,5.22-5.66,6.17c-2.31,0.44-5.02,0.65-8.3,0.65c-48.11,0.06-95.71,0.06-141.51-0.01c-3.03,0-5.75-0.24-8.11-0.71
	c-4.95-0.99-5.24-2.67-5.34-5.56c-0.24-6.89-0.22-13.75-0.19-21.02c0.01-2.83,0.02-5.7,0.01-8.59c20.15,0.13,40.46,0.11,60.18,0.08
	c8.04-0.01,16.07-0.02,24.11-0.02c6.9,0.01,13.8,0.02,20.7,0.03c21.05,0.04,42.73,0.08,64.23-0.08c-0.02,3.43,0,6.82,0.01,10.16
	C436.78,835.16,436.81,841.33,436.62,847.53z M527.47,564.68c-44.03,41.15-68.33,79.8-78.81,125.3
	c-2.77,12.05-3.77,23.86-4.74,35.29c-0.18,2.16-0.37,4.32-0.56,6.47c-0.69,7.67-2.28,9.42-2.46,9.59c-0.06,0.06-1.64,1.52-8.78,1.64
	c-16.83,0.29-34.03,0.25-50.67,0.2c-6.27-0.02-12.54-0.03-18.8-0.03c-0.88,0-1.76,0-2.64,0h-8.39c-8.32,0-16.64,0-24.97,0.01
	c-16.9,0.02-34.38,0.04-51.53-0.08c-10.12-0.07-12.06-1.71-12.08-1.73c-0.02-0.02-1.66-1.94-2.13-11.05
	c-1.69-32.3-9.58-62.53-23.46-89.84c-13.31-26.19-32.57-50.55-57.25-72.39c-32.56-28.82-57.05-61.98-72.79-98.58
	c-15.57-36.21-23.06-76.91-22.27-120.96c1.06-59.36,25-118.89,67.41-167.62c42.22-48.52,98.02-81.06,157.12-91.64
	c59.66-10.68,126.08,3.58,182.23,39.1c60.23,38.11,102.4,96.66,118.73,164.88C635.77,398.29,607.79,489.61,527.47,564.68z"/>
</svg>
