<?xml version="1.0" encoding="utf-8"?>
<!-- Generator: Adobe Illustrator 27.5.0, SVG Export Plug-In . SVG Version: 6.00 Build 0)  -->
<svg version="1.1" id="Layer_1" xmlns="http://www.w3.org/2000/svg" xmlns:xlink="http://www.w3.org/1999/xlink" x="0px" y="0px"
	 viewBox="0 0 1024 1024" style="enable-background:new 0 0 1024 1024;" xml:space="preserve"  fill="currentColor" stroke="currentColor">
<g>
	<path d="M512.94,1009.64c-134.07,0-268.14-0.01-402.21,0.01c-38.68,0-68.14-15.78-86.37-50.46c-6.91-13.15-9.37-27.53-9.38-42.23
		c-0.06-269.53-0.17-539.06,0.06-808.6c0.05-54.22,38.84-92.6,93.33-92.64c269.67-0.19,539.35-0.19,809.02,0
		c54.97,0.04,93.38,38.69,93.41,93.75c0.16,268.77,0.16,537.53,0,806.3c-0.03,55.53-38.68,93.75-94.53,93.82
		C781.85,1009.75,647.39,1009.64,512.94,1009.64z M561.15,445.05c0-13.49,0.05-24.03-0.01-34.57c-0.11-20.37-9.13-29.48-29.44-29.52
		c-34.96-0.07-69.92-0.06-104.89-0.01c-21,0.03-29.75,8.89-29.75,30.23c-0.03,153-0.03,305.99,0,458.99
		c0.01,21.01,8.95,29.83,30.16,29.87c34.19,0.07,68.39,0.05,102.58,0c22.68-0.03,31.33-8.63,31.33-31.15
		c0.02-78.61,0.03-157.21,0-235.82c-0.01-26.97,6.03-52.56,18.95-76.13c18.35-33.47,47.78-45.98,84.96-42.1
		c33.08,3.46,53.61,22.42,64.35,52.91c6.95,19.74,9.11,40.34,9.15,61.09c0.16,80.52,0.03,161.05,0.05,241.57
		c0,20.54,8.77,29.54,29.1,29.61c36.5,0.11,73,0.12,109.5,0c19.78-0.06,29.2-9.19,29.2-28.61c-0.02-85.51,0.1-171.02-0.49-256.52
		c-0.26-37.6-3.06-75.08-13.31-111.57c-11.27-40.1-30.17-75.39-65.17-100c-27.84-19.58-59.65-27.81-93.12-29.56
		c-46.31-2.43-91.37,1.93-131.44,28.57C586.83,413,574.33,427.28,561.15,445.05z M158.98,640.63c0,75.91-0.05,151.82,0.03,227.74
		c0.02,22.11,9.51,31.59,31.52,31.67c33.8,0.11,67.61,0.13,101.41,0c21.4-0.08,31.18-9.6,31.2-30.83
		c0.09-152.59,0.1-305.18-0.01-457.77c-0.01-21.11-9.93-30.42-31.5-30.46c-32.65-0.07-65.3-0.03-97.96-0.02
		c-26.08,0.01-34.68,8.47-34.69,34.25C158.97,490.34,158.98,565.48,158.98,640.63z M241.15,125.31
		c-58.1-0.07-105.76,46.98-106.07,104.73c-0.32,58.64,46.46,106,105.35,106.65c58.34,0.64,106.44-46.88,106.62-105.36
		C347.24,172.78,299.89,125.38,241.15,125.31z"/>
</g>
</svg>
