<svg xmlns="http://www.w3.org/2000/svg" version="1.1" viewBox="0 0 24 24" fill="currentColor">
  <circle cx="12" cy="12" r="3.1"/>
  <path d="M16.8,2.2c-1.3,0-1.6,0-4.8,0s-3.6,0-4.8,0c-3.3.1-4.8,1.7-4.9,4.9,0,1.3,0,1.6,0,4.8s0,3.6,0,4.8c.1,3.2,1.7,4.8,4.9,4.9,1.3,0,1.6,0,4.8,0s3.6,0,4.8,0c3.3-.1,4.8-1.7,4.9-4.9,0-1.3,0-1.6,0-4.8s0-3.6,0-4.8c-.1-3.2-1.7-4.8-4.9-4.9ZM12,17.7c-3.1,0-5.7-2.5-5.7-5.7s2.5-5.7,5.7-5.7,5.7,2.5,5.7,5.7-2.5,5.7-5.7,5.7ZM17.9,7.4c-.7,0-1.3-.6-1.3-1.3s.6-1.3,1.3-1.3,1.3.6,1.3,1.3-.6,1.3-1.3,1.3Z"/>
</svg>