<?xml version="1.0" encoding="utf-8"?>
<!-- Generator: Adobe Illustrator 27.5.0, SVG Export Plug-In . SVG Version: 6.00 Build 0)  -->
<svg version="1.1" id="Layer_1" xmlns="http://www.w3.org/2000/svg" xmlns:xlink="http://www.w3.org/1999/xlink" x="0px" y="0px"
	 viewBox="0 0 1024 1024" style="enable-background:new 0 0 1024 1024;" xml:space="preserve"  fill="currentColor" stroke="currentColor">
<g>
	<path d="M62.21,167.99c13.89-6.18,26.9-8.75,40.59-8.74c273.53,0.06,547.07,0.06,820.6,0c13.67,0,26.61,2.68,39.1,8.12
		c-0.02,4.4-3.62,5.99-5.91,8.28C830.92,301.15,705.23,426.62,579.44,552c-39.71,39.58-92.1,40.45-131.33,1.44
		C321.09,427.11,194.4,300.45,67.59,173.91C66.01,172.33,64.58,170.6,62.21,167.99z"/>
	<path d="M62.17,857.93c3.51-3.69,6.05-6.49,8.73-9.16c95.51-95.17,191.13-190.23,286.35-285.69c7.31-7.33,10.95-7.46,17.64,0.16
		c10.15,11.55,21.43,22.14,32.47,32.88c61.54,59.9,149.65,59.94,211.21,0.08c11.05-10.74,22.29-21.35,32.48-32.87
		c6.58-7.43,10.2-7.83,17.65-0.34c68.43,68.86,137.41,137.17,206.11,205.76c29.4,29.35,58.51,58.99,88.46,89.2
		c-13.18,6.68-26.83,8.78-41.08,8.77c-63.95-0.08-127.9-0.03-191.85-0.03c-208.03,0-416.06-0.04-624.08,0.08
		C91.42,866.77,77.18,864.77,62.17,857.93z"/>
	<path d="M11.34,513c0-86.3,0.05-172.6-0.06-258.9c-0.02-11.66,1.31-22.98,4.72-34.13c2.23-7.29,4.78-11.56,11.17-3.12
		c0.46,0.61,1.08,1.1,1.62,1.64c96.07,95.71,192.08,191.49,288.38,286.98c6.16,6.11,6.18,8.92,0.01,15.04
		c-96.3,95.49-192.3,191.27-288.38,286.98c-9.29,9.25-9.18,9.2-13.33-3.7c-3.35-10.4-4.18-21.04-4.17-31.88
		C11.38,685.6,11.34,599.3,11.34,513z"/>
	<path d="M1014.67,512.96c0,86.3-0.03,172.6,0.04,258.9c0.01,10.85-0.81,21.48-4.17,31.88c-4.17,12.92-4.07,12.97-13.33,3.74
		C939.61,750.13,882,692.77,824.41,635.4c-38.48-38.34-76.79-76.86-115.58-114.88c-6.19-6.07-6.2-8.91-0.01-15.05
		c96.3-95.49,192.3-191.27,288.38-286.97c9.28-9.24,9.18-9.19,13.34,3.68c3.36,10.4,4.18,21.04,4.18,31.88
		C1014.63,340.37,1014.67,426.67,1014.67,512.96z"/>
</g>
</svg>
