<?xml version="1.0" encoding="utf-8"?>
<!-- Generator: Adobe Illustrator 27.5.0, SVG Export Plug-In . SVG Version: 6.00 Build 0)  -->
<svg version="1.1" id="Layer_1" xmlns="http://www.w3.org/2000/svg" xmlns:xlink="http://www.w3.org/1999/xlink" x="0px" y="0px"
	 viewBox="0 0 1024 1024" style="enable-background:new 0 0 1024 1024;" xml:space="preserve" fill="currentColor" stroke="currentColor">
<path d="M512.39,1014.03c-91.54-0.13-183.1,1.22-274.59-3.99c-38.06-2.17-75.44-5.47-110.54-22.67
	C68.1,958.39,36.78,908.87,21.64,847.2c-7.82-31.86-11.79-64.23-11.72-97.23c0.32-163.39-0.04-326.78,0.29-490.17
	c0.08-36.93,3.13-73.96,16.58-108.67C57.49,71.88,116.12,27.3,200.09,15.68c32.11-4.44,64.35-6.65,96.79-6.59
	c157.81,0.32,315.61,0.35,473.42,0.76c37,0.09,73.61,3.93,108.27,18.11c77.41,31.66,117.95,91.8,132.1,172.11
	c3.31,18.77,3.89,37.72,3.89,56.71c0.03,169.72-0.12,339.44,0.12,509.16c0.07,51.92-8.35,101.69-36.5,146.2
	c-36.82,58.21-89.9,90.42-158.9,95.68C717.09,1015.6,614.73,1014.11,512.39,1014.03z M883.86,521.43c0-44.73,0.18-79.34-0.05-113.95
	c-0.21-32-1.62-63.97-7.51-95.52c-14.51-77.79-57.66-131.47-133.58-156.84c-29.84-9.97-61.01-13-92.26-14.1
	c-75.14-2.65-150.31-0.61-225.47-1.13c-40.51-0.28-81.03,1.4-120.85,10.02c-57.14,12.36-103.59,40.05-132.21,93.08
	c-18.95,35.1-26.53,73.14-28.72,112.41c-4.58,82.17-1.81,164.43-2.06,246.65c-0.12,40.16,1.04,80.36,9.62,119.8
	c14.58,67.02,51.18,116.23,116.89,140.88c36.24,13.59,74.23,18.01,112.59,19.49c73.64,2.84,147.32,0.66,220.99,1.3
	c36.44,0.32,72.88-1.45,108.87-8.11c56.64-10.48,105.02-34.34,136.79-84.9c21.27-33.85,30.25-71.5,33.83-110.76
	C885.85,623.67,883.21,567.46,883.86,521.43z"/>
<path d="M506.75,207.9c41.67,0,83.34-0.1,125.02,0.04c21.59,0.08,43,2.41,64.39,5.48c60.4,8.65,95.19,43.89,108.77,102.42
	c10.93,47.08,13.11,94.91,13.79,142.9c0.99,69.23-1.92,138.39-5.16,207.52c-1.01,21.58-4.73,42.79-12.39,63.18
	c-20.23,53.93-64.03,74.2-116.66,81.58c-52.57,7.37-105.49,4-158.27,4.23c-45.02,0.2-90.06,0.24-135.05-2.01
	c-33.43-1.67-66.68-4.23-98.92-14.58c-37.85-12.15-59.69-38.43-69.75-75.91c-10.21-38.05-11.76-77.09-12.66-116.09
	c-1.62-70.32-2.11-140.67,1.33-210.96c1.58-32.3,4.77-64.4,13.03-95.92c12.23-46.65,41.89-73.75,88.86-82.92
	c41.52-8.1,83.56-8.26,125.57-8.78c22.7-0.28,45.41-0.05,68.11-0.05C506.75,207.99,506.75,207.94,506.75,207.9z M512.95,702.56
	c107.04-0.35,190.74-85.72,190.49-194.3c-0.24-103.09-86.94-188.09-191.5-187.75c-105.96,0.34-191.04,86.2-190.44,192.17
	C322.1,618.42,407.28,702.91,512.95,702.56z M710.8,358.22c25.06-0.13,44.59-19.53,44.72-44.42c0.13-25.24-20.1-45.44-45.33-45.26
	c-25.43,0.18-44.7,20.12-44.35,45.88C666.2,339.58,685.46,358.35,710.8,358.22z"/>
<path d="M511.62,634.72c-70.77-0.22-121.49-51.73-121.47-123.34c0.03-71.98,51.21-123.05,123.03-122.77
	c70.68,0.28,121.75,52.12,121.5,123.34C634.45,584.13,583.51,634.95,511.62,634.72z"/>
</svg>
